<mxfile host="app.diagrams.net" modified="2020-09-17T00:55:08.452Z" agent="5.0 (Windows NT 10.0; Win64; x64) AppleWebKit/537.36 (KHTML, like Gecko) Chrome/85.0.4183.102 Safari/537.36" etag="MNw1Zz9KIoYO2nro9khV" version="13.7.2" type="github">
  <diagram name="Page-1" id="42789a77-a242-8287-6e28-9cd8cfd52e62">
    <mxGraphModel dx="1102" dy="565" grid="1" gridSize="10" guides="1" tooltips="1" connect="1" arrows="1" fold="1" page="1" pageScale="1" pageWidth="1100" pageHeight="850" background="#ffffff" math="0" shadow="0">
      <root>
        <mxCell id="0" />
        <mxCell id="1" parent="0" />
        <mxCell id="tPTGTCL6nzF7ESYKubEv-29" style="edgeStyle=orthogonalEdgeStyle;shape=link;rounded=0;orthogonalLoop=1;jettySize=auto;html=1;" edge="1" parent="1" source="1ea317790d2ca983-1" target="1ea317790d2ca983-6">
          <mxGeometry relative="1" as="geometry" />
        </mxCell>
        <mxCell id="1ea317790d2ca983-1" value="" style="ellipse;whiteSpace=wrap;html=1;rounded=0;shadow=1;comic=0;labelBackgroundColor=none;strokeWidth=1;fontFamily=Verdana;fontSize=12;align=center;fillColor=#3399FF;" parent="1" vertex="1">
          <mxGeometry x="380" y="260" width="50" height="50" as="geometry" />
        </mxCell>
        <mxCell id="tPTGTCL6nzF7ESYKubEv-26" style="edgeStyle=orthogonalEdgeStyle;shape=link;rounded=0;orthogonalLoop=1;jettySize=auto;html=1;" edge="1" parent="1" source="1ea317790d2ca983-2" target="1ea317790d2ca983-7">
          <mxGeometry relative="1" as="geometry" />
        </mxCell>
        <mxCell id="tPTGTCL6nzF7ESYKubEv-27" value="z" style="edgeStyle=orthogonalEdgeStyle;shape=link;rounded=0;orthogonalLoop=1;jettySize=auto;html=1;" edge="1" parent="1" source="1ea317790d2ca983-2" target="1ea317790d2ca983-1">
          <mxGeometry relative="1" as="geometry" />
        </mxCell>
        <mxCell id="1ea317790d2ca983-2" value="" style="ellipse;whiteSpace=wrap;html=1;rounded=0;shadow=1;comic=0;labelBackgroundColor=none;strokeWidth=1;fontFamily=Verdana;fontSize=12;align=center;" parent="1" vertex="1">
          <mxGeometry x="248.75" y="190" width="52.5" height="50" as="geometry" />
        </mxCell>
        <mxCell id="tPTGTCL6nzF7ESYKubEv-35" style="edgeStyle=orthogonalEdgeStyle;shape=link;rounded=0;orthogonalLoop=1;jettySize=auto;html=1;" edge="1" parent="1" source="1ea317790d2ca983-3" target="1ea317790d2ca983-5">
          <mxGeometry relative="1" as="geometry" />
        </mxCell>
        <mxCell id="1ea317790d2ca983-3" value="" style="ellipse;whiteSpace=wrap;html=1;rounded=0;shadow=1;comic=0;labelBackgroundColor=none;strokeWidth=1;fontFamily=Verdana;fontSize=12;align=center;fillColor=#66B2FF;" parent="1" vertex="1">
          <mxGeometry x="680" y="190" width="50" height="50" as="geometry" />
        </mxCell>
        <mxCell id="tPTGTCL6nzF7ESYKubEv-36" style="edgeStyle=orthogonalEdgeStyle;shape=link;rounded=0;orthogonalLoop=1;jettySize=auto;html=1;" edge="1" parent="1" source="1ea317790d2ca983-4" target="1ea317790d2ca983-8">
          <mxGeometry relative="1" as="geometry" />
        </mxCell>
        <mxCell id="1ea317790d2ca983-4" value="" style="ellipse;whiteSpace=wrap;html=1;rounded=0;shadow=1;comic=0;labelBackgroundColor=none;strokeWidth=1;fontFamily=Verdana;fontSize=12;align=center;fillColor=#66B2FF;" parent="1" vertex="1">
          <mxGeometry x="680" y="330" width="50" height="50" as="geometry" />
        </mxCell>
        <mxCell id="tPTGTCL6nzF7ESYKubEv-38" style="edgeStyle=orthogonalEdgeStyle;shape=link;rounded=0;orthogonalLoop=1;jettySize=auto;html=1;" edge="1" parent="1" source="1ea317790d2ca983-5" target="1ea317790d2ca983-8">
          <mxGeometry relative="1" as="geometry" />
        </mxCell>
        <mxCell id="tPTGTCL6nzF7ESYKubEv-39" style="edgeStyle=orthogonalEdgeStyle;shape=link;rounded=0;orthogonalLoop=1;jettySize=auto;html=1;" edge="1" parent="1" source="1ea317790d2ca983-5" target="1ea317790d2ca983-11">
          <mxGeometry relative="1" as="geometry" />
        </mxCell>
        <mxCell id="1ea317790d2ca983-5" value="" style="ellipse;whiteSpace=wrap;html=1;rounded=0;shadow=1;comic=0;labelBackgroundColor=none;strokeWidth=1;fontFamily=Verdana;fontSize=12;align=center;" parent="1" vertex="1">
          <mxGeometry x="820" y="190" width="50" height="50" as="geometry" />
        </mxCell>
        <mxCell id="tPTGTCL6nzF7ESYKubEv-31" style="edgeStyle=orthogonalEdgeStyle;shape=link;rounded=0;orthogonalLoop=1;jettySize=auto;html=1;entryX=0;entryY=0.34;entryDx=0;entryDy=0;entryPerimeter=0;" edge="1" parent="1" source="1ea317790d2ca983-6" target="1ea317790d2ca983-3">
          <mxGeometry relative="1" as="geometry">
            <Array as="points">
              <mxPoint x="580" y="215" />
              <mxPoint x="680" y="215" />
            </Array>
          </mxGeometry>
        </mxCell>
        <mxCell id="tPTGTCL6nzF7ESYKubEv-33" style="edgeStyle=orthogonalEdgeStyle;shape=link;rounded=0;orthogonalLoop=1;jettySize=auto;html=1;entryX=0;entryY=0.78;entryDx=0;entryDy=0;entryPerimeter=0;" edge="1" parent="1" source="1ea317790d2ca983-6" target="1ea317790d2ca983-4">
          <mxGeometry relative="1" as="geometry">
            <Array as="points">
              <mxPoint x="580" y="355" />
              <mxPoint x="680" y="355" />
            </Array>
          </mxGeometry>
        </mxCell>
        <mxCell id="1ea317790d2ca983-6" value="" style="ellipse;whiteSpace=wrap;html=1;rounded=0;shadow=1;comic=0;labelBackgroundColor=none;strokeWidth=1;fontFamily=Verdana;fontSize=12;align=center;" parent="1" vertex="1">
          <mxGeometry x="540" y="260" width="50" height="50" as="geometry" />
        </mxCell>
        <mxCell id="tPTGTCL6nzF7ESYKubEv-28" style="edgeStyle=orthogonalEdgeStyle;shape=link;rounded=0;orthogonalLoop=1;jettySize=auto;html=1;" edge="1" parent="1" source="1ea317790d2ca983-7">
          <mxGeometry relative="1" as="geometry">
            <mxPoint x="405" y="304" as="targetPoint" />
            <Array as="points">
              <mxPoint x="405" y="355" />
            </Array>
          </mxGeometry>
        </mxCell>
        <mxCell id="1ea317790d2ca983-7" value="" style="ellipse;whiteSpace=wrap;html=1;rounded=0;shadow=1;comic=0;labelBackgroundColor=none;strokeWidth=1;fontFamily=Verdana;fontSize=12;align=center;fillColor=#99FF33;" parent="1" vertex="1">
          <mxGeometry x="250" y="330" width="50" height="50" as="geometry" />
        </mxCell>
        <mxCell id="tPTGTCL6nzF7ESYKubEv-40" style="edgeStyle=orthogonalEdgeStyle;shape=link;rounded=0;orthogonalLoop=1;jettySize=auto;html=1;entryX=0.5;entryY=1;entryDx=0;entryDy=0;" edge="1" parent="1" source="1ea317790d2ca983-8" target="1ea317790d2ca983-11">
          <mxGeometry relative="1" as="geometry" />
        </mxCell>
        <mxCell id="1ea317790d2ca983-8" value="" style="ellipse;whiteSpace=wrap;html=1;rounded=0;shadow=1;comic=0;labelBackgroundColor=none;strokeWidth=1;fontFamily=Verdana;fontSize=12;align=center;" parent="1" vertex="1">
          <mxGeometry x="818.75" y="330" width="52.5" height="50" as="geometry" />
        </mxCell>
        <mxCell id="tPTGTCL6nzF7ESYKubEv-25" style="edgeStyle=orthogonalEdgeStyle;shape=link;rounded=0;orthogonalLoop=1;jettySize=auto;html=1;" edge="1" parent="1" source="1ea317790d2ca983-10" target="1ea317790d2ca983-7">
          <mxGeometry relative="1" as="geometry" />
        </mxCell>
        <mxCell id="1ea317790d2ca983-10" value="" style="ellipse;whiteSpace=wrap;html=1;rounded=0;shadow=1;comic=0;labelBackgroundColor=none;strokeWidth=1;fontFamily=Verdana;fontSize=12;align=center;" parent="1" vertex="1">
          <mxGeometry x="120" y="330" width="50" height="50" as="geometry" />
        </mxCell>
        <mxCell id="1ea317790d2ca983-11" value="" style="ellipse;whiteSpace=wrap;html=1;rounded=0;shadow=1;comic=0;labelBackgroundColor=none;strokeWidth=1;fontFamily=Verdana;fontSize=12;align=center;fillColor=#99FF33;" parent="1" vertex="1">
          <mxGeometry x="960" y="260" width="50" height="50" as="geometry" />
        </mxCell>
        <mxCell id="tPTGTCL6nzF7ESYKubEv-23" style="edgeStyle=orthogonalEdgeStyle;shape=link;rounded=0;orthogonalLoop=1;jettySize=auto;html=1;" edge="1" parent="1" source="tPTGTCL6nzF7ESYKubEv-18" target="1ea317790d2ca983-10">
          <mxGeometry relative="1" as="geometry" />
        </mxCell>
        <mxCell id="tPTGTCL6nzF7ESYKubEv-24" style="edgeStyle=orthogonalEdgeStyle;shape=link;rounded=0;orthogonalLoop=1;jettySize=auto;html=1;" edge="1" parent="1" source="tPTGTCL6nzF7ESYKubEv-18" target="1ea317790d2ca983-2">
          <mxGeometry relative="1" as="geometry" />
        </mxCell>
        <mxCell id="tPTGTCL6nzF7ESYKubEv-18" value="" style="ellipse;whiteSpace=wrap;html=1;aspect=fixed;fillColor=#B3FF66;" vertex="1" parent="1">
          <mxGeometry x="120" y="190" width="50" height="50" as="geometry" />
        </mxCell>
        <mxCell id="tPTGTCL6nzF7ESYKubEv-41" value="&lt;b&gt;&lt;font style=&quot;font-size: 20px&quot;&gt;χ(G)=3,&amp;nbsp;&lt;/font&gt;&lt;/b&gt;&lt;span style=&quot;font-size: 20px&quot;&gt;&lt;b&gt;α(G)=5&lt;/b&gt;&lt;/span&gt;" style="text;html=1;strokeColor=none;fillColor=none;align=center;verticalAlign=middle;whiteSpace=wrap;rounded=0;" vertex="1" parent="1">
          <mxGeometry x="500" y="405" width="40" height="20" as="geometry" />
        </mxCell>
        <mxCell id="tPTGTCL6nzF7ESYKubEv-66" style="edgeStyle=orthogonalEdgeStyle;shape=link;rounded=0;orthogonalLoop=1;jettySize=auto;html=1;fillColor=#d5e8d4;strokeColor=#82b366;strokeWidth=2;" edge="1" parent="1" source="tPTGTCL6nzF7ESYKubEv-67" target="tPTGTCL6nzF7ESYKubEv-80">
          <mxGeometry relative="1" as="geometry" />
        </mxCell>
        <mxCell id="tPTGTCL6nzF7ESYKubEv-67" value="" style="ellipse;whiteSpace=wrap;html=1;rounded=0;shadow=1;comic=0;labelBackgroundColor=none;strokeWidth=1;fontFamily=Verdana;fontSize=12;align=center;fillColor=#e1d5e7;strokeColor=#9673a6;" vertex="1" parent="1">
          <mxGeometry x="345" y="560" width="50" height="50" as="geometry" />
        </mxCell>
        <mxCell id="tPTGTCL6nzF7ESYKubEv-68" style="edgeStyle=orthogonalEdgeStyle;shape=link;rounded=0;orthogonalLoop=1;jettySize=auto;html=1;fillColor=#d5e8d4;strokeColor=#82b366;strokeWidth=2;" edge="1" parent="1" source="tPTGTCL6nzF7ESYKubEv-70" target="tPTGTCL6nzF7ESYKubEv-82">
          <mxGeometry relative="1" as="geometry" />
        </mxCell>
        <mxCell id="tPTGTCL6nzF7ESYKubEv-69" value="z" style="edgeStyle=orthogonalEdgeStyle;shape=link;rounded=0;orthogonalLoop=1;jettySize=auto;html=1;" edge="1" parent="1" source="tPTGTCL6nzF7ESYKubEv-70" target="tPTGTCL6nzF7ESYKubEv-67">
          <mxGeometry relative="1" as="geometry" />
        </mxCell>
        <mxCell id="tPTGTCL6nzF7ESYKubEv-70" value="" style="ellipse;whiteSpace=wrap;html=1;rounded=0;shadow=1;comic=0;labelBackgroundColor=none;strokeWidth=1;fontFamily=Verdana;fontSize=12;align=center;fillColor=#e1d5e7;strokeColor=#9673a6;" vertex="1" parent="1">
          <mxGeometry x="213.75" y="490" width="52.5" height="50" as="geometry" />
        </mxCell>
        <mxCell id="tPTGTCL6nzF7ESYKubEv-71" style="edgeStyle=orthogonalEdgeStyle;shape=link;rounded=0;orthogonalLoop=1;jettySize=auto;html=1;" edge="1" parent="1" source="tPTGTCL6nzF7ESYKubEv-72" target="tPTGTCL6nzF7ESYKubEv-77">
          <mxGeometry relative="1" as="geometry" />
        </mxCell>
        <mxCell id="tPTGTCL6nzF7ESYKubEv-72" value="" style="ellipse;whiteSpace=wrap;html=1;rounded=0;shadow=1;comic=0;labelBackgroundColor=none;strokeWidth=1;fontFamily=Verdana;fontSize=12;align=center;" vertex="1" parent="1">
          <mxGeometry x="645" y="490" width="50" height="50" as="geometry" />
        </mxCell>
        <mxCell id="tPTGTCL6nzF7ESYKubEv-73" style="edgeStyle=orthogonalEdgeStyle;shape=link;rounded=0;orthogonalLoop=1;jettySize=auto;html=1;fillColor=#e1d5e7;strokeColor=#B5739D;strokeWidth=4;" edge="1" parent="1" source="tPTGTCL6nzF7ESYKubEv-74" target="tPTGTCL6nzF7ESYKubEv-84">
          <mxGeometry relative="1" as="geometry" />
        </mxCell>
        <mxCell id="tPTGTCL6nzF7ESYKubEv-74" value="" style="ellipse;whiteSpace=wrap;html=1;rounded=0;shadow=1;comic=0;labelBackgroundColor=none;strokeWidth=1;fontFamily=Verdana;fontSize=12;align=center;" vertex="1" parent="1">
          <mxGeometry x="645" y="630" width="50" height="50" as="geometry" />
        </mxCell>
        <mxCell id="tPTGTCL6nzF7ESYKubEv-75" style="edgeStyle=orthogonalEdgeStyle;shape=link;rounded=0;orthogonalLoop=1;jettySize=auto;html=1;fillColor=#d5e8d4;strokeColor=#82b366;strokeWidth=2;" edge="1" parent="1" source="tPTGTCL6nzF7ESYKubEv-77" target="tPTGTCL6nzF7ESYKubEv-84">
          <mxGeometry relative="1" as="geometry" />
        </mxCell>
        <mxCell id="tPTGTCL6nzF7ESYKubEv-76" style="edgeStyle=orthogonalEdgeStyle;shape=link;rounded=0;orthogonalLoop=1;jettySize=auto;html=1;" edge="1" parent="1" source="tPTGTCL6nzF7ESYKubEv-77" target="tPTGTCL6nzF7ESYKubEv-86">
          <mxGeometry relative="1" as="geometry" />
        </mxCell>
        <mxCell id="tPTGTCL6nzF7ESYKubEv-77" value="" style="ellipse;whiteSpace=wrap;html=1;rounded=0;shadow=1;comic=0;labelBackgroundColor=none;strokeWidth=1;fontFamily=Verdana;fontSize=12;align=center;" vertex="1" parent="1">
          <mxGeometry x="785" y="490" width="50" height="50" as="geometry" />
        </mxCell>
        <mxCell id="tPTGTCL6nzF7ESYKubEv-78" style="edgeStyle=orthogonalEdgeStyle;shape=link;rounded=0;orthogonalLoop=1;jettySize=auto;html=1;entryX=0;entryY=0.34;entryDx=0;entryDy=0;entryPerimeter=0;fillColor=#e1d5e7;strokeColor=#B5739D;strokeWidth=4;" edge="1" parent="1" source="tPTGTCL6nzF7ESYKubEv-80" target="tPTGTCL6nzF7ESYKubEv-72">
          <mxGeometry relative="1" as="geometry">
            <Array as="points">
              <mxPoint x="545" y="515" />
              <mxPoint x="645" y="515" />
            </Array>
          </mxGeometry>
        </mxCell>
        <mxCell id="tPTGTCL6nzF7ESYKubEv-79" style="edgeStyle=orthogonalEdgeStyle;shape=link;rounded=0;orthogonalLoop=1;jettySize=auto;html=1;entryX=0;entryY=0.78;entryDx=0;entryDy=0;entryPerimeter=0;" edge="1" parent="1" source="tPTGTCL6nzF7ESYKubEv-80" target="tPTGTCL6nzF7ESYKubEv-74">
          <mxGeometry relative="1" as="geometry">
            <Array as="points">
              <mxPoint x="545" y="655" />
              <mxPoint x="645" y="655" />
            </Array>
          </mxGeometry>
        </mxCell>
        <mxCell id="tPTGTCL6nzF7ESYKubEv-80" value="" style="ellipse;whiteSpace=wrap;html=1;rounded=0;shadow=1;comic=0;labelBackgroundColor=none;strokeWidth=1;fontFamily=Verdana;fontSize=12;align=center;" vertex="1" parent="1">
          <mxGeometry x="505" y="560" width="50" height="50" as="geometry" />
        </mxCell>
        <mxCell id="tPTGTCL6nzF7ESYKubEv-81" style="edgeStyle=orthogonalEdgeStyle;shape=link;rounded=0;orthogonalLoop=1;jettySize=auto;html=1;fillColor=#e1d5e7;strokeColor=#B5739D;strokeWidth=4;" edge="1" parent="1" source="tPTGTCL6nzF7ESYKubEv-82">
          <mxGeometry relative="1" as="geometry">
            <mxPoint x="370" y="604" as="targetPoint" />
            <Array as="points">
              <mxPoint x="370" y="655" />
            </Array>
          </mxGeometry>
        </mxCell>
        <mxCell id="tPTGTCL6nzF7ESYKubEv-82" value="" style="ellipse;whiteSpace=wrap;html=1;rounded=0;shadow=1;comic=0;labelBackgroundColor=none;strokeWidth=1;fontFamily=Verdana;fontSize=12;align=center;fillColor=#e1d5e7;strokeColor=#9673a6;" vertex="1" parent="1">
          <mxGeometry x="215" y="630" width="50" height="50" as="geometry" />
        </mxCell>
        <mxCell id="tPTGTCL6nzF7ESYKubEv-83" style="edgeStyle=orthogonalEdgeStyle;shape=link;rounded=0;orthogonalLoop=1;jettySize=auto;html=1;entryX=0.5;entryY=1;entryDx=0;entryDy=0;" edge="1" parent="1" source="tPTGTCL6nzF7ESYKubEv-84" target="tPTGTCL6nzF7ESYKubEv-86">
          <mxGeometry relative="1" as="geometry" />
        </mxCell>
        <mxCell id="tPTGTCL6nzF7ESYKubEv-84" value="" style="ellipse;whiteSpace=wrap;html=1;rounded=0;shadow=1;comic=0;labelBackgroundColor=none;strokeWidth=1;fontFamily=Verdana;fontSize=12;align=center;" vertex="1" parent="1">
          <mxGeometry x="783.75" y="630" width="52.5" height="50" as="geometry" />
        </mxCell>
        <mxCell id="tPTGTCL6nzF7ESYKubEv-85" style="edgeStyle=orthogonalEdgeStyle;shape=link;rounded=0;orthogonalLoop=1;jettySize=auto;html=1;" edge="1" parent="1" target="tPTGTCL6nzF7ESYKubEv-82">
          <mxGeometry relative="1" as="geometry">
            <mxPoint x="135" y="655" as="sourcePoint" />
          </mxGeometry>
        </mxCell>
        <mxCell id="tPTGTCL6nzF7ESYKubEv-86" value="" style="ellipse;whiteSpace=wrap;html=1;rounded=0;shadow=1;comic=0;labelBackgroundColor=none;strokeWidth=1;fontFamily=Verdana;fontSize=12;align=center;" vertex="1" parent="1">
          <mxGeometry x="925" y="560" width="50" height="50" as="geometry" />
        </mxCell>
        <mxCell id="tPTGTCL6nzF7ESYKubEv-87" style="edgeStyle=orthogonalEdgeStyle;shape=link;rounded=0;orthogonalLoop=1;jettySize=auto;html=1;fillColor=#d5e8d4;strokeColor=#82b366;strokeWidth=2;" edge="1" parent="1">
          <mxGeometry relative="1" as="geometry">
            <mxPoint x="110" y="540" as="sourcePoint" />
            <mxPoint x="110" y="630" as="targetPoint" />
          </mxGeometry>
        </mxCell>
        <mxCell id="tPTGTCL6nzF7ESYKubEv-88" style="edgeStyle=orthogonalEdgeStyle;shape=link;rounded=0;orthogonalLoop=1;jettySize=auto;html=1;fillColor=#e1d5e7;strokeColor=#B5739D;strokeWidth=4;" edge="1" parent="1" target="tPTGTCL6nzF7ESYKubEv-70">
          <mxGeometry relative="1" as="geometry">
            <mxPoint x="135" y="515" as="sourcePoint" />
          </mxGeometry>
        </mxCell>
        <mxCell id="tPTGTCL6nzF7ESYKubEv-89" value="&lt;font&gt;&lt;b style=&quot;font-size: 20px&quot;&gt;q(G)=3&lt;br&gt;&lt;br&gt;&lt;/b&gt;&lt;/font&gt;" style="text;html=1;strokeColor=none;fillColor=none;align=center;verticalAlign=middle;whiteSpace=wrap;rounded=0;" vertex="1" parent="1">
          <mxGeometry x="440" y="705" width="180" height="20" as="geometry" />
        </mxCell>
        <mxCell id="tPTGTCL6nzF7ESYKubEv-90" value="" style="ellipse;whiteSpace=wrap;html=1;aspect=fixed;" vertex="1" parent="1">
          <mxGeometry x="90" y="490" width="50" height="50" as="geometry" />
        </mxCell>
        <mxCell id="tPTGTCL6nzF7ESYKubEv-91" value="" style="ellipse;whiteSpace=wrap;html=1;aspect=fixed;fillColor=#FFFFFF;" vertex="1" parent="1">
          <mxGeometry x="90" y="630" width="50" height="50" as="geometry" />
        </mxCell>
        <mxCell id="tPTGTCL6nzF7ESYKubEv-92" style="edgeStyle=orthogonalEdgeStyle;shape=link;rounded=0;orthogonalLoop=1;jettySize=auto;html=1;fillColor=#e1d5e7;strokeColor=#B5739D;strokeWidth=4;" edge="1" parent="1">
          <mxGeometry relative="1" as="geometry">
            <mxPoint x="835" y="515" as="sourcePoint" />
            <mxPoint x="950" y="560" as="targetPoint" />
          </mxGeometry>
        </mxCell>
        <mxCell id="tPTGTCL6nzF7ESYKubEv-93" value="" style="ellipse;whiteSpace=wrap;html=1;rounded=0;shadow=1;comic=0;labelBackgroundColor=none;strokeWidth=1;fontFamily=Verdana;fontSize=12;align=center;fillColor=#e1d5e7;strokeColor=#9673a6;" vertex="1" parent="1">
          <mxGeometry x="785" y="490" width="50" height="50" as="geometry" />
        </mxCell>
        <mxCell id="tPTGTCL6nzF7ESYKubEv-94" value="" style="ellipse;whiteSpace=wrap;html=1;rounded=0;shadow=1;comic=0;labelBackgroundColor=none;strokeWidth=1;fontFamily=Verdana;fontSize=12;align=center;fillColor=#e1d5e7;strokeColor=#9673a6;" vertex="1" parent="1">
          <mxGeometry x="783.75" y="630" width="52.5" height="50" as="geometry" />
        </mxCell>
        <mxCell id="tPTGTCL6nzF7ESYKubEv-95" value="" style="ellipse;whiteSpace=wrap;html=1;rounded=0;shadow=1;comic=0;labelBackgroundColor=none;strokeWidth=1;fontFamily=Verdana;fontSize=12;align=center;strokeColor=#9673a6;fillColor=#FFFFFF;" vertex="1" parent="1">
          <mxGeometry x="213.75" y="490" width="52.5" height="50" as="geometry" />
        </mxCell>
        <mxCell id="tPTGTCL6nzF7ESYKubEv-96" value="" style="ellipse;whiteSpace=wrap;html=1;rounded=0;shadow=1;comic=0;labelBackgroundColor=none;strokeWidth=1;fontFamily=Verdana;fontSize=12;align=center;strokeColor=#9673a6;fillColor=#FFFFFF;" vertex="1" parent="1">
          <mxGeometry x="215" y="630" width="50" height="50" as="geometry" />
        </mxCell>
        <mxCell id="tPTGTCL6nzF7ESYKubEv-97" value="" style="ellipse;whiteSpace=wrap;html=1;rounded=0;shadow=1;comic=0;labelBackgroundColor=none;strokeWidth=1;fontFamily=Verdana;fontSize=12;align=center;strokeColor=#9673a6;fillColor=#FFFFFF;" vertex="1" parent="1">
          <mxGeometry x="345" y="560" width="50" height="50" as="geometry" />
        </mxCell>
        <mxCell id="tPTGTCL6nzF7ESYKubEv-98" value="" style="ellipse;whiteSpace=wrap;html=1;rounded=0;shadow=1;comic=0;labelBackgroundColor=none;strokeWidth=1;fontFamily=Verdana;fontSize=12;align=center;strokeColor=#9673a6;fillColor=#FFFFFF;" vertex="1" parent="1">
          <mxGeometry x="785" y="490" width="50" height="50" as="geometry" />
        </mxCell>
        <mxCell id="tPTGTCL6nzF7ESYKubEv-99" value="" style="ellipse;whiteSpace=wrap;html=1;rounded=0;shadow=1;comic=0;labelBackgroundColor=none;strokeWidth=1;fontFamily=Verdana;fontSize=12;align=center;strokeColor=#9673a6;fillColor=#FFFFFF;" vertex="1" parent="1">
          <mxGeometry x="783.75" y="630" width="52.5" height="50" as="geometry" />
        </mxCell>
      </root>
    </mxGraphModel>
  </diagram>
</mxfile>
